curl
version=1
nRows=338
nColumns=3
inDegrees=yes
endheader
time	r_shoulder_elev	r_elbow_flex
0.0000	30.792390	2.984595
0.0100	30.794434	2.982250
0.0200	30.796635	2.978706
0.0300	30.799004	2.973863
0.0400	30.801548	2.967629
0.0500	30.804275	2.959921
0.0600	30.807193	2.950663
0.0700	30.810306	2.939790
0.0800	30.813619	2.927250
0.0900	30.817133	2.913005
0.1000	30.820849	2.897030
0.1100	30.824766	2.879314
0.1200	30.828878	2.859867
0.1300	30.833180	2.838710
0.1400	30.837665	2.815885
0.1500	30.842321	2.791449
0.1600	30.847136	2.765475
0.1700	30.852095	2.738053
0.1800	30.857182	2.709289
0.1900	30.862379	2.679300
0.2000	30.867664	2.648216
0.2100	30.873017	2.616180
0.2200	30.878414	2.583339
0.2300	30.883832	2.549850
0.2400	30.889246	2.515872
0.2500	30.894630	2.481569
0.2600	30.899959	2.447100
0.2700	30.905207	2.412628
0.2800	30.910349	2.378307
0.2900	30.915360	2.344290
0.3000	30.920217	2.310721
0.3100	30.924897	2.277736
0.3200	30.929379	2.245463
0.3300	30.933645	2.214022
0.3400	30.937679	2.183519
0.3500	30.941466	2.154056
0.3600	30.944997	2.125719
0.3700	30.948263	2.098588
0.3800	30.951261	2.072732
0.3900	30.953991	2.048212
0.4000	30.956455	2.025080
0.4100	30.958660	2.003382
0.4200	30.960616	1.983155
0.4300	30.962338	1.964433
0.4400	30.963841	1.947245
0.4500	30.965144	1.931613
0.4600	30.966270	1.917560
0.4700	30.967240	1.905104
0.4800	30.968080	1.894262
0.4900	30.968814	1.885048
0.5000	30.969469	1.877476
0.5100	30.970068	1.871558
0.5200	30.970636	1.867305
0.5300	30.971197	1.864726
0.5400	30.971770	1.863830
0.5500	30.972376	1.864620
0.5600	30.973031	1.867101
0.5700	30.973748	1.871270
0.5800	30.974540	1.877124
0.5900	30.975413	1.884654
0.6000	30.976374	1.893843
0.6100	30.977425	1.904671
0.6200	30.978565	1.917110
0.6300	30.979791	1.931123
0.6400	30.981096	1.946663
0.6500	30.982474	1.963676
0.6600	30.983913	1.982095
0.6700	30.985402	2.001841
0.6800	30.986927	2.022825
0.6900	30.988474	2.044943
0.7000	30.990027	2.068077
0.7100	30.991572	2.092098
0.7200	30.993091	2.116859
0.7300	30.994568	2.142203
0.7400	30.995988	2.167958
0.7500	30.997336	2.193939
0.7600	30.998595	2.219950
0.7700	30.999753	2.245784
0.7800	31.000797	2.271226
0.7900	31.001715	2.296055
0.8000	31.002498	2.320044
0.8100	31.003135	2.342968
0.8200	31.003620	2.364600
0.8300	31.003948	2.384718
0.8400	31.004114	2.403109
0.8500	31.004117	2.419569
0.8600	31.003956	2.433911
0.8700	31.003634	2.445963
0.8800	31.003154	2.455575
0.8900	31.002522	2.462622
0.9000	31.001746	2.467003
0.9100	31.000835	2.468649
0.9200	30.999801	2.467521
0.9300	30.998658	2.463615
0.9400	30.997422	2.456959
0.9500	30.996111	2.447621
0.9600	30.994745	2.435699
0.9700	30.993344	2.421333
0.9800	30.991934	2.404691
0.9900	30.990538	2.385978
1.0000	30.989183	2.365427
1.0100	30.987899	2.343298
1.0200	30.986713	2.319875
1.0300	30.985656	2.295459
1.0400	30.984758	2.270369
1.0500	30.984051	2.244929
1.0600	30.983565	2.219471
1.0700	30.983332	2.194326
1.0800	30.983380	2.169815
1.0900	30.983738	2.146253
1.1000	30.984433	2.123935
1.1100	30.985489	2.103135
1.1200	30.986927	2.084103
1.1300	30.988765	2.067059
1.1400	30.991018	2.052189
1.1500	30.993696	2.039642
1.1600	30.996802	2.029532
1.1700	31.000337	2.021927
1.1800	31.004293	2.016857
1.1900	31.008658	2.014307
1.2000	31.013411	2.014217
1.2100	31.018525	2.016485
1.2200	31.023965	2.020966
1.2300	31.029689	2.027469
1.2400	31.035647	2.035766
1.2500	31.041780	2.045586
1.2600	31.048022	2.056622
1.2700	31.054299	2.068533
1.2800	31.060530	2.080942
1.2900	31.066626	2.093447
1.3000	31.072491	2.105619
1.3100	31.078024	2.117004
1.3200	31.083118	2.127135
1.3300	31.087660	2.135526
1.3400	31.091536	2.141684
1.3500	31.094625	2.145111
1.3600	31.096807	2.145307
1.3700	31.097961	2.141779
1.3800	31.097967	2.134039
1.3900	31.096706	2.121617
1.4000	31.094063	2.104061
1.4100	31.089927	2.080941
1.4200	31.084197	2.051858
1.4300	31.076775	2.016445
1.4400	31.067577	1.974373
1.4500	31.056528	1.925357
1.4600	31.043566	1.869155
1.4700	31.028644	1.805576
1.4800	31.011729	1.734484
1.4900	30.992805	1.655797
1.5000	30.971874	1.569493
1.5100	30.948956	1.475613
1.5200	30.924089	1.374261
1.5300	30.897331	1.265608
1.5400	30.868759	1.149892
1.5500	30.838469	1.027424
1.5600	30.806577	0.898587
1.5700	30.773214	0.763838
1.5800	30.738532	0.623712
1.5900	30.702695	0.478824
1.6000	30.665884	0.329873
1.6100	30.628292	0.177643
1.6200	30.590122	0.023006
1.6300	30.551584	0.000000
1.6400	30.512896	0.000000
1.6500	30.474277	0.000000
1.6600	30.435947	0.000000
1.6700	30.398121	0.000000
1.6800	30.361008	0.000000
1.6900	30.324808	0.000000
1.7000	30.289708	0.000000
1.7100	30.255879	0.000000
1.7200	30.223471	0.000000
1.7300	30.192612	0.000000
1.7400	30.163408	0.000000
1.7500	30.135934	0.000000
1.7600	30.110237	0.000000
1.7700	30.086331	0.000000
1.7800	30.064199	0.000000
1.7900	30.043789	0.000000
1.8000	30.025014	0.000000
1.8100	30.007754	0.000000
1.8200	29.991854	0.000000
1.8300	29.977125	0.000000
1.8400	29.963351	0.000000
1.8500	29.950285	0.000000
1.8600	29.937654	0.000000
1.8700	29.925165	0.029189
1.8800	29.912506	0.444479
1.8900	29.899355	0.914080
1.9000	29.885379	1.440051
1.9100	29.870245	2.024256
1.9200	29.853624	2.668336
1.9300	29.835198	3.373690
1.9400	29.814662	4.141448
1.9500	29.791739	4.972455
1.9600	29.766176	5.867253
1.9700	29.737759	6.826067
1.9800	29.706313	7.848795
1.9900	29.671710	8.935002
2.0000	29.633873	10.083914
2.0100	29.592782	11.294420
2.0200	29.548476	12.565073
2.0300	29.501059	13.894098
2.0400	29.450698	15.279400
2.0500	29.397633	16.718573
2.0600	29.342168	18.208916
2.0700	29.284680	19.747445
2.0800	29.225615	21.330914
2.0900	29.165487	22.955829
2.1000	29.104874	24.618473
2.1100	29.044420	26.314925
2.1200	28.984827	28.041089
2.1300	28.926849	29.792713
2.1400	28.871292	31.565428
2.1500	28.819000	33.354770
2.1600	28.770856	35.156216
2.1700	28.727764	36.965218
2.1800	28.690650	38.777237
2.1900	28.660443	40.587779
2.2000	28.638072	42.392433
2.2100	28.624451	44.186900
2.2200	28.620472	45.967037
2.2300	28.626990	47.728882
2.2400	28.644814	49.468689
2.2500	28.674694	51.182954
2.2600	28.717314	52.868443
2.2700	28.773280	54.522215
2.2800	28.843109	56.141639
2.2900	28.927221	57.724413
2.3000	29.025934	59.268577
2.3100	29.139453	60.772520
2.3200	29.267870	62.234991
2.3300	29.411155	63.655098
2.3400	29.569158	65.032309
2.3500	29.741605	66.366452
2.3600	29.928102	67.657705
2.3700	30.128138	68.906594
2.3800	30.341084	70.113977
2.3900	30.566209	71.281036
2.4000	30.802676	72.409260
2.4100	31.049561	73.500429
2.4200	31.305856	74.556595
2.4300	31.570480	75.580059
2.4400	31.842293	76.573348
2.4500	32.120105	77.539191
2.4600	32.402689	78.480487
2.4700	32.688790	79.400278
2.4800	32.977138	80.301719
2.4900	33.266458	81.188041
2.5000	33.555481	82.062517
2.5100	33.842953	82.928432
2.5200	34.127643	83.789044
2.5300	34.408353	84.647550
2.5400	34.683924	85.507051
2.5500	34.953241	86.370524
2.5600	35.215242	87.240783
2.5700	35.468920	88.120460
2.5800	35.713326	89.011967
2.5900	35.947575	89.917484
2.6000	36.170846	90.838929
2.6100	36.382384	91.777947
2.6200	36.581503	92.735891
2.6300	36.767585	93.713818
2.6400	36.940082	94.712479
2.6500	37.098517	95.732319
2.6600	37.242485	96.773476
2.6700	37.371653	97.835787
2.6800	37.485761	98.918797
2.6900	37.584625	100.021767
2.7000	37.668136	101.143692
2.7100	37.736264	102.283313
2.7200	37.789054	103.439136
2.7300	37.826636	104.609454
2.7400	37.849216	105.792366
2.7500	37.857087	106.985800
2.7600	37.850621	108.187530
2.7700	37.830275	109.395206
2.7800	37.796586	110.606366
2.7900	37.750176	111.818461
2.8000	37.691743	113.028871
2.8100	37.622062	114.234919
2.8200	37.541985	115.433893
2.8300	37.452427	116.623052
2.8400	37.354373	117.799641
2.8500	37.248859	118.960903
2.8600	37.136976	120.104085
2.8700	37.019853	121.226448
2.8800	36.898654	122.325273
2.8900	36.774567	123.397868
2.9000	36.648789	124.441572
2.9100	36.522521	125.453761
2.9200	36.396954	126.431852
2.9300	36.273256	127.373307
2.9400	36.152559	128.000000
2.9500	36.035951	128.000000
2.9600	35.924460	128.000000
2.9700	35.819044	128.000000
2.9800	35.720584	128.000000
2.9900	35.629867	128.000000
3.0000	35.547583	128.000000
3.0100	35.474319	128.000000
3.0200	35.410547	128.000000
3.0300	35.356626	128.000000
3.0400	35.312794	128.000000
3.0500	35.279172	128.000000
3.0600	35.255760	128.000000
3.0700	35.242441	128.000000
3.0800	35.238983	128.000000
3.0900	35.245048	128.000000
3.1000	35.260191	128.000000
3.1100	35.283877	128.000000
3.1200	35.315480	128.000000
3.1300	35.354299	128.000000
3.1400	35.399565	128.000000
3.1500	35.450454	128.000000
3.1600	35.506097	128.000000
3.1700	35.565590	128.000000
3.1800	35.628009	128.000000
3.1900	35.692418	128.000000
3.2000	35.757884	128.000000
3.2100	35.823483	128.000000
3.2200	35.888316	128.000000
3.2300	35.951510	128.000000
3.2400	36.012238	128.000000
3.2500	36.069717	127.577560
3.2600	36.123218	126.524744
3.2700	36.172074	125.415395
3.2800	36.215684	124.251609
3.2900	36.253513	123.035629
3.3000	36.285102	121.769833
3.3100	36.310062	120.456726
3.3200	36.328082	119.098927
3.3300	36.338923	117.699153
3.3400	36.342422	116.260209
3.3500	36.338487	114.784963
3.3600	36.327097	113.276334
3.3700	36.308298	111.737262
